<?xml version="1.0" standalone="no"?>
<!DOCTYPE svg PUBLIC "-//W3C//DTD SVG 20010904//EN"
 "http://www.w3.org/TR/2001/REC-SVG-20010904/DTD/svg10.dtd">
<svg version="1.0" xmlns="http://www.w3.org/2000/svg"
 width="194.000000pt" height="194.000000pt" viewBox="0 0 194.000000 194.000000"
 preserveAspectRatio="xMidYMid meet">

<g transform="translate(0.000000,194.000000) scale(0.100000,-0.100000)"
fill="#000000" stroke="none">
<path d="M648 1772 l-318 -107 0 -77 0 -76 312 104 c172 57 322 104 333 104
11 0 155 -45 320 -100 165 -55 303 -100 307 -100 5 0 8 33 8 74 l0 74 -318
106 c-174 58 -319 106 -322 105 -3 0 -148 -49 -322 -107z"/>
<path d="M330 1375 l0 -75 640 0 640 0 0 75 0 75 -640 0 -640 0 0 -75z"/>
<path d="M330 915 l0 -275 85 0 85 0 0 275 0 275 -85 0 -85 0 0 -275z"/>
<path d="M710 915 l0 -275 80 0 80 0 0 275 0 275 -80 0 -80 0 0 -275z"/>
<path d="M1080 915 l0 -275 80 0 80 0 0 275 0 275 -80 0 -80 0 0 -275z"/>
<path d="M1450 930 c0 -143 4 -260 9 -260 19 0 94 31 122 50 l29 21 0 225 0
224 -80 0 -80 0 0 -260z"/>
<path d="M1566 595 c-92 -56 -256 -75 -649 -75 -302 0 -448 -11 -532 -38 l-50
-17 -3 -78 c-3 -78 -3 -78 19 -67 57 31 179 41 589 50 318 6 431 12 485 24 76
17 174 61 181 81 3 6 4 42 2 78 l-3 66 -39 -24z"/>
<path d="M1585 336 c-27 -21 -131 -53 -213 -67 -37 -6 -249 -15 -472 -19 -396
-9 -484 -16 -542 -46 -27 -14 -28 -18 -28 -90 0 -72 1 -74 21 -64 61 33 157
42 569 50 433 8 512 16 613 59 67 29 78 48 75 125 -3 65 -4 67 -23 52z"/>
</g>
</svg>
